<?xml version="1.0" encoding="utf-8"?>
<!-- Generator: Adobe Illustrator 25.2.1, SVG Export Plug-In . SVG Version: 6.00 Build 0)  -->
<svg version="1.1" id="Layer_1" xmlns="http://www.w3.org/2000/svg" xmlns:xlink="http://www.w3.org/1999/xlink" x="0px" y="0px"
	 viewBox="0 0 512 415.8" style="enable-background:new 0 0 512 415.8;" xml:space="preserve">
<path d="M459.4,103.6c0.3,4.5,0.3,9.1,0.3,13.6c0,138.7-105.6,298.6-298.6,298.6C104,416,48.1,399.6,0,368.7
	c8.4,0.9,16.9,1.4,25.3,1.3c47.2,0.1,93.1-15.7,130.3-44.8c-44.9-0.8-84.3-30.1-98.1-72.8c6.6,1,13.2,1.6,19.8,1.6
	c9.3,0,18.6-1.2,27.6-3.6c-49-9.9-84.2-53-84.1-103v-1.3c14.5,8.1,30.8,12.7,47.4,13.3C22,128.7,7.8,67.2,35.7,19.2
	C89,84.8,167.7,124.7,252.1,129c-1.7-7.9-2.6-15.9-2.6-24c0-58,47-105,105-105c29,0,56.7,12,76.6,33.2c23.5-4.5,46-13.1,66.6-25.3
	c-7.8,24.3-24.2,44.8-46.1,57.8c20.8-2.4,41.2-7.9,60.4-16.3C497.6,70.3,479.8,88.6,459.4,103.6z"/>
</svg>
