<?xml version="1.0" encoding="utf-8"?>
<!-- Generator: Adobe Illustrator 25.2.1, SVG Export Plug-In . SVG Version: 6.00 Build 0)  -->
<svg version="1.1" id="Layer_1" xmlns="http://www.w3.org/2000/svg" xmlns:xlink="http://www.w3.org/1999/xlink" x="0px" y="0px"
	 viewBox="0 0 448.2 448.1" style="enable-background:new 0 0 448.2 448.1;" xml:space="preserve">
<path d="M224.2,109.2c-63.5,0-114.9,51.4-114.9,114.9S160.7,339,224.2,339s114.9-51.4,114.9-114.9c0,0,0,0,0,0
	c0.1-63.4-51.2-114.8-114.5-114.9C224.4,109.2,224.3,109.2,224.2,109.2z M224.2,298.8c-41.3,0-74.7-33.4-74.7-74.7
	c0-41.3,33.4-74.7,74.7-74.7c41.3,0,74.7,33.4,74.7,74.7v0C298.8,265.3,265.4,298.7,224.2,298.8L224.2,298.8z M370.6,104.5
	c0,14.8-12,26.8-26.8,26.8c-14.8,0-26.8-12-26.8-26.8c0-14.8,12-26.8,26.8-26.8l0,0c14.8,0,26.8,11.9,26.8,26.7
	C370.6,104.4,370.6,104.4,370.6,104.5z M446.7,131.7c-1.7-35.9-9.9-67.7-36.2-93.9s-58-34.4-93.9-36.2c-37-2.1-147.9-2.1-184.9,0
	c-35.8,1.7-67.6,9.9-93.9,36.1s-34.4,58-36.2,93.9c-2.1,37-2.1,147.9,0,184.9c1.7,35.9,9.9,67.7,36.2,93.9s58,34.4,93.9,36.2
	c37,2.1,147.9,2.1,184.9,0c35.9-1.7,67.7-9.9,93.9-36.2s34.4-58,36.2-93.9C448.8,279.5,448.8,168.7,446.7,131.7L446.7,131.7z
	 M398.9,356.2c-7.7,19.5-23.1,34.9-42.6,42.6c-29.5,11.7-99.5,9-132.1,9s-102.7,2.6-132.1-9c-19.5-7.7-34.9-23.1-42.6-42.6
	c-11.7-29.5-9-99.5-9-132.1s-2.6-102.7,9-132.1c7.7-19.5,23.1-34.9,42.6-42.6c29.5-11.7,99.5-9,132.1-9s102.7-2.6,132.1,9
	c19.5,7.7,34.9,23.1,42.6,42.6c11.7,29.5,9,99.5,9,132.1S410.6,326.8,398.9,356.2z"/>
</svg>
